<svg fill="#000000" height="200px" width="200px" version="1.1" id="Layer_1" xmlns="http://www.w3.org/2000/svg"
    xmlns:xlink="http://www.w3.org/1999/xlink" viewBox="0 0 511.999 511.999" xml:space="preserve">
    <g id="SVGRepo_bgCarrier" stroke-width="0"></g>
    <g id="SVGRepo_tracerCarrier" stroke-linecap="round" stroke-linejoin="round"></g>
    <g id="SVGRepo_iconCarrier">
        <g>
            <g>
                <path
                    d="M430.877,257.908l-85.438-85.342l85.439-85.341c10.721-10.708,3.131-29.134-12.081-29.134H166.839 c7.795-28.906-13.708-57.26-43.269-58.073c-24.617-0.679-45.787,18.48-47.373,43.056c-1.335,20.685,11.079,38.711,28.98,45.862 v405.529c0,8.772,6.427,16.467,15.145,17.428c10.305,1.135,19.027-6.896,19.027-16.96V287.042h279.446 C433.958,287.042,441.634,268.651,430.877,257.908z M121.798,58.153c-6.612,0-11.992-5.379-11.992-11.991 c0-6.612,5.38-11.993,11.992-11.993c6.613,0,11.992,5.38,11.992,11.992S128.41,58.153,121.798,58.153z M139.35,252.87V92.261 h237.812l-68.242,68.241c-6.657,6.654-6.662,17.464,0,24.124l68.243,68.243H139.35z">
                </path>
            </g>
        </g>
    </g>
</svg>