<svg width="24" height="24" viewBox="0 0 24 24" fill="none" xmlns="http://www.w3.org/2000/svg">
    <path
        d="M18.88 12.24C20.01 12.24 21 13.23 21 14.36V17C21 18.1 20.1 19 19 19H16.36C15.23 19 14.24 19.99 14.24 21.12C14.24 22.25 13.25 23.24 12.12 23.24C10.99 23.24 10 22.25 10 21.12C10 19.99 9.01 19 7.88 19H5C3.9 19 3 18.1 3 17V14.12C3 12.99 3.99 12 5.12 12C6.25 12 7.24 11.01 7.24 9.88C7.24 8.75 6.25 7.76 5.12 7.76C3.99 7.76 3 6.77 3 5.64V3C3 1.9 3.9 1 5 1H7.64C8.77 1 9.76 1.99 9.76 3.12C9.76 4.25 10.75 5.24 11.88 5.24C13.01 5.24 14 4.25 14 3.12C14 1.99 14.99 1 16.12 1H19C20.1 1 21 1.9 21 3V5.88C21 7.01 20.01 8 18.88 8C17.75 8 16.76 8.99 16.76 10.12C16.76 11.25 17.75 12.24 18.88 12.24Z"
        stroke="currentColor" stroke-width="2" stroke-linecap="round" stroke-linejoin="round" />
</svg>