<?xml version="1.0" encoding="UTF-8"?>
<!--Generator: Apple Native CoreSVG 341-->
<!DOCTYPE svg PUBLIC "-//W3C//DTD SVG 1.1//EN" "http://www.w3.org/Graphics/SVG/1.1/DTD/svg11.dtd">
<svg version="1.1" xmlns="http://www.w3.org/2000/svg" xmlns:xlink="http://www.w3.org/1999/xlink"
       viewBox="0 0 12.7686 12.3193">
       <g>
              <rect height="12.3193" opacity="0" width="12.7686" x="0" y="0" />
              <path d="M0 4.94141C0 7.66113 2.2168 9.87793 4.94141 9.87793C6.04004 9.87793 7.05078 9.5166 7.87109 8.90625L11.0889 12.1289C11.2109 12.2559 11.3818 12.3193 11.5576 12.3193C11.9434 12.3193 12.2021 12.0264 12.2021 11.6602C12.2021 11.4795 12.1387 11.3232 12.0215 11.2012L8.81836 7.9834C9.48242 7.14844 9.88281 6.08887 9.88281 4.94141C9.88281 2.2168 7.66602 0 4.94141 0C2.2168 0 0 2.2168 0 4.94141ZM0.913086 4.94141C0.913086 2.71973 2.71973 0.913086 4.94141 0.913086C7.16309 0.913086 8.96484 2.71973 8.96484 4.94141C8.96484 7.1582 7.16309 8.96484 4.94141 8.96484C2.71973 8.96484 0.913086 7.1582 0.913086 4.94141Z"
                     fill="white" fill-opacity="1" />
       </g>
</svg>