<svg version="1.1" xmlns="http://www.w3.org/2000/svg" xmlns:xlink="http://www.w3.org/1999/xlink" width="375.75269" height="152.48247" viewBox="0,0,375.75269,152.48247"><g transform="translate(-42.35707,-117.07188)"><g data-paper-data="{&quot;isPaintingLayer&quot;:true}" fill-rule="nonzero" stroke-linejoin="miter" stroke-miterlimit="10" stroke-dasharray="" stroke-dashoffset="0" style="mix-blend-mode: normal"><path d="M378.44587,149.35488c0,0 -15.9713,-12.49168 -20.17019,10.00838c-4.45351,21.64781 24.78105,19.073 24.06541,39.5597c-0.94901,7.63465 -5.64951,18.01205 -17.44074,15.55035c-11.53255,-2.40769 -7.21682,-23.59375 -7.21682,-23.59375" fill="none" stroke="#000000" stroke-width="10" stroke-linecap="round"/><path d="M349.27347,146.2011c0,0 2.47749,68.1543 -11.82519,68.70577c-17.29295,-0.36168 -15.50751,-68.96858 -15.50751,-68.96858" fill="none" stroke="#000000" stroke-width="10" stroke-linecap="round"/><path d="M285.96988,187.38841c0,0 -4.80284,-0.03887 -6.30957,-0.05346c-1.04425,-0.01011 -1.83393,0.58378 -1.81378,1.61966c0.0964,4.95522 -0.02323,19.66824 -4.63167,24.10502c-2.14199,2.0622 -10.07508,2.12381 -12.67826,-5.80721c-4.46657,-13.60814 -2.9492,-41.03932 0.29369,-52.12689c3.92583,-13.42256 13.83857,-7.6849 13.83857,-7.6849" fill="none" stroke="#000000" stroke-width="10" stroke-linecap="round"/><path d="M285.96988,187.38842c0,0 -4.80284,-0.03887 -6.30957,-0.05346c-1.04425,-0.01011 -1.83393,0.58376 -1.81378,1.61965c0.09641,4.95522 -0.02321,19.66824 -4.63166,24.10502c-5.81723,5.60054 -12.85864,-3.08621 -13.71026,-6.09659c-0.82372,-2.91172 -3.8072,-34.28794 1.32569,-51.83752c3.92582,-13.42255 13.83857,-7.6849 13.83857,-7.6849" fill="none" stroke="#000000" stroke-width="10" stroke-linecap="round"/><path d="M249.17587,145.60094c0,0 0.99737,27.87016 0.85726,40.19944c-0.09355,8.23215 -1.05109,23.58609 -1.46106,28.93491c-0.11319,1.4768 -0.36388,-0.36556 -0.61173,-1.21483c-0.60477,-2.07233 -3.6454,-11.10169 -6.47517,-22.30773c-1.97219,-7.80996 -3.43649,-16.94751 -5.60761,-24.38724c-2.42404,-8.30639 -4.99567,-14.52893 -5.9062,-17.649c-0.32612,-1.11748 -1.30211,-3.1832 -1.31133,-1.98863c-0.05154,6.67479 -0.50931,68.32173 -0.50931,68.32173" fill="none" stroke="#000000" stroke-width="10" stroke-linecap="round"/><path d="M218.6894,178.84699c0,18.36127 -3.78893,35.87417 -7.49021,35.87417c-5.27817,0 -10.38117,-1.48122 -10.9068,-41.65609c-0.24021,-18.3597 3.52612,-27.4641 7.2274,-27.4641c7.11787,0 11.16961,14.88475 11.16961,33.24602z" fill="none" stroke="#000000" stroke-width="10" stroke-linecap="butt"/><path d="M147.97895,215.97525c0,0 9.9522,-61.41699 11.3055,-69.21837c0.26349,-1.51892 12.58071,68.50535 12.58071,68.50535" fill="none" stroke="#000000" stroke-width="10" stroke-linecap="round"/><path d="M171.84524,214.99941c0,0 11.26596,-69.76145 11.52945,-68.24253c1.3533,7.80138 9.72861,68.69274 9.72861,68.69274" data-paper-data="{&quot;index&quot;:null}" fill="none" stroke="#000000" stroke-width="10" stroke-linecap="round"/><path d="M134.13189,159.27018c0,0 4.22196,-0.13374 7.45121,8.27733c2.04199,4.89708 2.68937,18.01058 2.86155,20.05213c0.30436,3.60887 -5.94228,6.21813 -5.94228,6.21813" fill="none" stroke="#000000" stroke-width="10" stroke-linecap="round"/><path d="M106.2337,171.69696c-0.57704,-1.89178 -0.40584,-4.81895 -0.40584,-6.39135c0,-0.63267 1.1038,-5.94307 4.524,-6.86281c2.5605,-0.68855 8.62574,-0.4333 12.87398,0.75646c2.4026,0.67288 4.34844,6.37122 3.53532,10.8779c-0.63753,3.53352 -2.46236,4.59375 -4.28385,4.59375c-2.1202,0 -7.27273,0.10722 -10.81298,-0.13426c-2.27048,-0.15488 -4.98396,-1.37535 -5.43062,-2.8397z" fill="none" stroke="#000000" stroke-width="10" stroke-linecap="butt"/><path d="M97.94222,214.25656c-0.37959,-5.6952 -1.65202,-29.6093 2.28136,-47.75995c1.01526,-4.68495 3.83009,-18.38649 12.82256,-20.38236c5.43133,-1.20548 15.85842,1.08626 20.00775,12.05479c3.4118,9.0189 4.12402,21.33936 4.81345,31.98429c0.69612,10.74821 1.35221,19.79493 1.22779,23.41519c-0.03521,1.02462 -0.51532,1.5909 -1.32192,1.59792c-1.7363,0.0151 -8.85489,0.07426 -11.88713,0.09942c-0.84938,0.00705 -1.47436,-0.62368 -1.6373,-1.65031c-0.45136,-2.84384 -0.50812,-8.74165 -0.49466,-12.41688c0.00289,-0.78988 -0.3529,-1.53741 -0.76772,-2.13975c-0.57655,-0.83718 -1.69336,-1.38217 -2.78419,-1.363c-2.02949,0.03567 -5.51141,0.09724 -6.85416,0.15759c-1.29677,0.05828 -2.66984,1.99102 -2.68721,3.16897c-0.0413,2.80163 -0.20931,14.19744 -0.20931,14.19744c0,0 -9.92966,0.27045 -10.74478,0.27753c-0.92526,0.00805 -1.71027,-0.42723 -1.7645,-1.24088z" fill="none" stroke="#000000" stroke-width="10" stroke-linecap="butt"/><path d="M97.94223,214.25656c-0.37959,-5.6952 -1.65202,-29.6093 2.28136,-47.75995c1.01526,-4.68495 3.83009,-18.38649 12.82256,-20.38236c5.43133,-1.20548 15.85842,1.08626 20.00775,12.05479c3.4118,9.0189 4.12402,21.33936 4.81345,31.98429c0.69612,10.74821 1.35221,19.79493 1.22779,23.41519c-0.03521,1.02462 -0.51532,1.5909 -1.32192,1.59792c-1.7363,0.0151 -8.85489,0.07426 -11.88713,0.09942c-0.84938,0.00705 -1.47436,-0.62368 -1.6373,-1.65031c-0.45136,-2.84384 -0.50812,-8.74165 -0.49466,-12.41688c0.00289,-0.78988 -0.35291,-1.53742 -0.76773,-2.13976c-0.57655,-0.83718 -1.69336,-1.38217 -2.78419,-1.36299c-2.02949,0.03567 -5.51141,0.09724 -6.85416,0.15759c-1.29678,0.05828 -2.66984,1.99102 -2.6872,3.16897c-0.04131,2.80163 -0.20932,14.19744 -0.20932,14.19744c0,0 -9.92966,0.27045 -10.74478,0.27753c-0.92526,0.00805 -1.71027,-0.42723 -1.7645,-1.24088z" fill="none" stroke="#000000" stroke-width="10" stroke-linecap="butt"/><path d="M134.13189,159.27018c0,0 4.22196,-0.13374 7.45121,8.27733c2.04199,4.89708 2.68937,18.01058 2.86155,20.05213c0.30436,3.60887 -5.94228,6.21813 -5.94228,6.21813" fill="none" stroke="#000000" stroke-width="10" stroke-linecap="round"/><path d="M147.97895,215.97525c0,0 9.9522,-61.41699 11.3055,-69.21837c0.26349,-1.51892 12.58071,68.50535 12.58071,68.50535" fill="none" stroke="#000000" stroke-width="10" stroke-linecap="round"/><path d="M171.84524,215.26222c0,0 11.26596,-70.02427 11.52944,-68.50535c1.3533,7.80138 9.72861,68.69274 9.72861,68.69274" data-paper-data="{&quot;index&quot;:null}" fill="none" stroke="#000000" stroke-width="10" stroke-linecap="round"/><path d="M218.6894,178.84699c0,15.77214 -2.40786,30.91831 -5.76602,34.87622c-0.55127,0.64972 -2.83527,0.98148 -3.38273,0.90493c-4.64483,-0.64949 -8.77805,-5.62412 -9.24826,-41.56307c-0.24021,-18.3597 3.52611,-27.4641 7.2274,-27.4641c7.11787,0 11.16961,14.88475 11.16961,33.24602z" fill="none" stroke="#000000" stroke-width="10" stroke-linecap="butt"/><path d="M249.17588,145.60095c0,0 0.99737,27.87016 0.85726,40.19944c-0.09355,8.23215 -1.31391,23.58609 -1.72387,28.93491c-0.11319,1.4768 -0.10107,-0.36556 -0.34892,-1.21483c-0.60477,-2.07234 -3.6454,-11.1017 -6.47517,-22.30774c-1.97219,-7.80996 -3.43648,-16.94751 -5.60761,-24.38724c-2.42405,-8.30638 -6.04693,-16.36862 -6.95746,-19.48869c-0.32612,-1.11748 -0.25086,1.02183 -0.26008,2.2164c-0.05154,6.67479 -0.50931,65.9564 -0.50931,65.9564" fill="none" stroke="#000000" stroke-width="10" stroke-linecap="round"/><path d="M285.96988,187.38841c0,0 -4.80284,-0.03887 -6.30957,-0.05346c-1.04425,-0.01011 -1.83393,0.58378 -1.81378,1.61966c0.0964,4.95522 -0.02323,19.66824 -4.63167,24.10502c-2.14199,2.0622 -10.07508,2.12381 -12.67826,-5.80721c-4.46657,-13.60814 -2.9492,-41.03932 0.29369,-52.12689c3.92583,-13.42256 13.83857,-7.6849 13.83857,-7.6849" fill="none" stroke="#000000" stroke-width="10" stroke-linecap="round"/><path d="M349.27347,146.2011c0,0 2.47749,68.1543 -11.82519,68.70577c-17.29295,-0.36167 -15.50751,-68.96858 -15.50751,-68.96858" fill="none" stroke="#000000" stroke-width="10" stroke-linecap="round"/><path d="M378.44587,149.35488c0,0 -15.9713,-12.49168 -20.17019,10.00838c-4.45351,21.64781 24.78105,19.07301 24.06541,39.5597c-0.94901,7.63465 -5.64951,18.01205 -17.44074,15.55035c-11.53255,-2.4077 -7.21682,-23.59374 -7.21682,-23.59374" fill="none" stroke="#000000" stroke-width="10" stroke-linecap="round"/><path d="M378.44587,149.35488c0,0 -15.9713,-12.49168 -20.17019,10.00838c-4.45351,21.64781 24.78105,19.073 24.06541,39.5597c-0.94901,7.63465 -5.64951,18.01205 -17.44074,15.55035c-11.53255,-2.40769 -7.21682,-23.59375 -7.21682,-23.59375" fill="none" stroke="#000000" stroke-width="6" stroke-linecap="round"/><path d="M349.27347,146.2011c0,0 2.47749,68.1543 -11.82519,68.70577c-17.29295,-0.36168 -15.50751,-68.96858 -15.50751,-68.96858" fill="none" stroke="#000000" stroke-width="6" stroke-linecap="round"/><path d="M285.96988,187.38841c0,0 -4.80284,-0.03887 -6.30957,-0.05346c-1.04425,-0.01011 -1.83393,0.58378 -1.81378,1.61966c0.0964,4.95522 -0.02323,19.66824 -4.63167,24.10502c-2.14199,2.0622 -10.07508,2.12381 -12.67826,-5.80721c-4.46657,-13.60814 -2.9492,-41.03932 0.29369,-52.12689c3.92583,-13.42256 13.83857,-7.6849 13.83857,-7.6849" fill="none" stroke="#000000" stroke-width="6" stroke-linecap="round"/><path d="M285.96988,187.38842c0,0 -4.80284,-0.03887 -6.30957,-0.05346c-1.04425,-0.01011 -1.83393,0.58376 -1.81378,1.61965c0.09641,4.95522 -0.02321,19.66824 -4.63166,24.10502c-5.81723,5.60054 -12.85864,-3.08621 -13.71026,-6.09659c-0.82372,-2.91172 -3.8072,-34.28794 1.32569,-51.83752c3.92582,-13.42255 13.83857,-7.6849 13.83857,-7.6849" fill="none" stroke="#ffffff" stroke-width="4" stroke-linecap="round"/><path d="M249.17587,145.60094c0,0 0.99737,27.87016 0.85726,40.19944c-0.09355,8.23215 -1.05109,23.58609 -1.46106,28.93491c-0.11319,1.4768 -0.36388,-0.36556 -0.61173,-1.21483c-0.60477,-2.07233 -3.6454,-11.10169 -6.47517,-22.30773c-1.97219,-7.80996 -3.43649,-16.94751 -5.60761,-24.38724c-2.42404,-8.30639 -4.99567,-14.52893 -5.9062,-17.649c-0.32612,-1.11748 -1.30211,-3.1832 -1.31133,-1.98863c-0.05154,6.67479 -0.50931,68.32173 -0.50931,68.32173" fill="none" stroke="#000000" stroke-width="6" stroke-linecap="round"/><path d="M218.6894,178.84699c0,18.36127 -3.78893,35.87417 -7.49021,35.87417c-5.27817,0 -10.38117,-1.48122 -10.9068,-41.65609c-0.24021,-18.3597 3.52612,-27.4641 7.2274,-27.4641c7.11787,0 11.16961,14.88475 11.16961,33.24602z" fill="none" stroke="#000000" stroke-width="6" stroke-linecap="butt"/><path d="M147.97895,215.97525c0,0 9.9522,-61.41699 11.3055,-69.21837c0.26349,-1.51892 12.58071,68.50535 12.58071,68.50535" fill="none" stroke="#000000" stroke-width="6" stroke-linecap="round"/><path d="M171.84524,214.99941c0,0 11.26596,-69.76145 11.52945,-68.24253c1.3533,7.80138 9.72861,68.69274 9.72861,68.69274" data-paper-data="{&quot;index&quot;:null}" fill="none" stroke="#000000" stroke-width="6" stroke-linecap="round"/><path d="M134.13189,159.27018c0,0 4.22196,-0.13374 7.45121,8.27733c2.04199,4.89708 2.68937,18.01058 2.86155,20.05213c0.30436,3.60887 -5.94228,6.21813 -5.94228,6.21813" fill="none" stroke="#000000" stroke-width="6" stroke-linecap="round"/><path d="" fill="none" stroke="#000000" stroke-width="6" stroke-linecap="butt"/><path d="M97.94223,214.25656c-0.37959,-5.6952 -1.65202,-29.6093 2.28136,-47.75995c1.01526,-4.68495 3.83009,-18.38649 12.82256,-20.38236c5.43133,-1.20548 15.85842,1.08626 20.00775,12.05479c3.4118,9.0189 4.12402,21.33936 4.81345,31.98429c0.69612,10.74821 1.35221,19.79493 1.22779,23.41519c-0.03521,1.02462 -0.51532,1.5909 -1.32192,1.59792c-1.7363,0.0151 -8.85489,0.07426 -11.88713,0.09942c-0.84938,0.00705 -1.47436,-0.62368 -1.6373,-1.65031c-0.45136,-2.84384 -0.50812,-8.74165 -0.49466,-12.41688c0.00289,-0.78988 -0.35291,-1.53742 -0.76773,-2.13976c-0.57655,-0.83718 -1.69336,-1.38217 -2.78419,-1.36299c-2.02949,0.03567 -5.51141,0.09724 -6.85416,0.15759c-1.29678,0.05828 -2.66984,1.99102 -2.6872,3.16897c-0.04131,2.80163 -0.20932,14.19744 -0.20932,14.19744c0,0 -9.92966,0.27045 -10.74478,0.27753c-0.92526,0.00805 -1.71027,-0.42723 -1.7645,-1.24088z" fill="#000000" stroke="#ffffff" stroke-width="4" stroke-linecap="butt"/><path d="M105.82786,165.30561c0,-0.63267 1.1038,-5.94308 4.524,-6.86281c2.56049,-0.68855 8.62574,-0.43331 12.87398,0.75646c2.40261,0.67287 4.34844,6.37121 3.53532,10.87791c-0.63754,3.53352 -2.46236,4.59376 -4.28385,4.59376c-2.1202,0 -7.27273,0.10722 -10.81298,-0.13426c-2.27047,-0.15487 -4.98396,-1.37535 -5.43062,-2.8397c0,0 -0.40585,-4.81896 -0.40585,-6.39136z" fill="none" stroke="#ffffff" stroke-width="4" stroke-linecap="butt"/><path d="M134.13189,159.27018c0,0 4.22196,-0.13374 7.45121,8.27733c2.04199,4.89708 2.68937,18.01058 2.86155,20.05213c0.30436,3.60887 -5.94228,6.21813 -5.94228,6.21813" fill="none" stroke="#ffffff" stroke-width="4" stroke-linecap="round"/><path d="M147.97895,215.97525c0,0 9.9522,-61.41699 11.3055,-69.21837c0.26349,-1.51892 12.58071,68.50535 12.58071,68.50535" fill="none" stroke="#ffffff" stroke-width="4" stroke-linecap="round"/><path d="M171.84524,215.26222c0,0 11.26596,-70.02427 11.52944,-68.50535c1.3533,7.80138 9.72861,68.69274 9.72861,68.69274" data-paper-data="{&quot;index&quot;:null}" fill="none" stroke="#ffffff" stroke-width="4" stroke-linecap="round"/><path d="M218.6894,178.84699c0,15.77214 -2.40786,30.91831 -5.76602,34.87622c-0.55127,0.64972 -2.83527,0.98148 -3.38273,0.90493c-4.64483,-0.64949 -8.77805,-5.62412 -9.24826,-41.56307c-0.24021,-18.3597 3.52611,-27.4641 7.2274,-27.4641c7.11787,0 11.16961,14.88475 11.16961,33.24602z" fill="none" stroke="#ffffff" stroke-width="4" stroke-linecap="butt"/><path d="M249.17588,145.60095c0,0 0.99737,27.87016 0.85726,40.19944c-0.09355,8.23215 -1.31391,23.58609 -1.72387,28.93491c-0.11319,1.4768 -0.10107,-0.36556 -0.34892,-1.21483c-0.60477,-2.07234 -3.6454,-11.1017 -6.47517,-22.30774c-1.97219,-7.80996 -3.43648,-16.94751 -5.60761,-24.38724c-2.42405,-8.30638 -6.04693,-16.36862 -6.95746,-19.48869c-0.32612,-1.11748 -0.25086,1.02183 -0.26008,2.2164c-0.05154,6.67479 -0.50931,65.9564 -0.50931,65.9564" fill="none" stroke="#ffffff" stroke-width="4" stroke-linecap="round"/><path d="M285.96988,187.38841c0,0 -4.80284,-0.03887 -6.30957,-0.05346c-1.04425,-0.01011 -1.83393,0.58378 -1.81378,1.61966c0.0964,4.95522 -0.02323,19.66824 -4.63167,24.10502c-2.14199,2.0622 -10.07508,2.12381 -12.67826,-5.80721c-4.46657,-13.60814 -2.9492,-41.03932 0.29369,-52.12689c3.92583,-13.42256 13.83857,-7.6849 13.83857,-7.6849" fill="none" stroke="#ffffff" stroke-width="4" stroke-linecap="round"/><path d="M349.27347,146.2011c0,0 2.47749,68.1543 -11.82519,68.70577c-17.29295,-0.36167 -15.50751,-68.96858 -15.50751,-68.96858" fill="none" stroke="#ffffff" stroke-width="4" stroke-linecap="round"/><path d="M378.44587,149.35488c0,0 -15.9713,-12.49168 -20.17019,10.00838c-4.45351,21.64781 24.78105,19.07301 24.06541,39.5597c-0.94901,7.63465 -5.64951,18.01205 -17.44074,15.55035c-11.53255,-2.4077 -7.21682,-23.59374 -7.21682,-23.59374" fill="none" stroke="#ffffff" stroke-width="4" stroke-linecap="round"/><path d="M418.10976,180.05042c0,34.78209 -84.11511,62.97854 -187.87635,62.97854c-103.76124,0 -187.87634,-28.19645 -187.87634,-62.97854c0,-34.78209 84.1151,-62.97854 187.87634,-62.97854c103.76124,0 187.87635,28.19645 187.87635,62.97854z" fill="none" stroke="none" stroke-width="NaN" stroke-linecap="butt"/><path d="M232.50659,263.00391c-2.02784,0 -3.04175,-0.23124 -3.04175,-0.69373l-0.72042,-13.6879l-4.1624,13.86133c-0.08894,0.27572 -0.86271,0.41358 -2.32133,0.41358c-1.45862,0 -2.21016,-0.12452 -2.25463,-0.37355l-4.30915,-14.03476l-0.46694,13.62119c-0.02669,0.33797 -0.46249,0.57367 -1.30742,0.70708c-0.83604,0.12452 -1.53422,0.18677 -2.09454,0.18677c-0.56032,0 -1.10285,-0.03557 -1.6276,-0.10672c-1.09396,-0.16009 -1.62761,-0.4447 -1.60092,-0.85383l0.78712,-22.19947c0,-0.55143 1.38747,-0.82714 4.1624,-0.82714c0.81825,0 1.81882,0.0667 3.00173,0.20011c1.1918,0.12452 1.85441,0.3691 1.98781,0.73376l3.82888,10.75287l3.3486,-10.79289c0.20456,-0.5959 1.77436,-0.89385 4.70938,-0.89385c0.84493,0 1.84996,0.0667 3.01507,0.20011c1.17401,0.12452 1.76102,0.34242 1.76102,0.65372l0.98723,22.41293c0,0.24903 -0.4447,0.43136 -1.3341,0.54698c-0.88051,0.11562 -1.66318,0.17343 -2.34802,0.17343zM252.31692,262.04335c-1.43194,0.84493 -3.27745,1.2674 -5.53653,1.2674c-2.25018,0 -4.14906,-0.76933 -5.69662,-2.308c-1.54756,-1.53867 -2.32133,-3.66878 -2.32133,-6.39035c0,-2.72157 0.74265,-4.91395 2.22795,-6.57713c1.49419,-1.66318 3.37973,-2.49477 5.6566,-2.49477c2.27687,0 4.03344,0.58256 5.2697,1.74767c1.24516,1.16511 1.86774,2.57482 1.86774,4.22911c0,3.69101 -2.11677,5.53653 -6.35033,5.53653h-2.36136c0,0.68484 0.18677,1.16067 0.56033,1.42749c0.38244,0.25793 0.93832,0.38689 1.66762,0.38689c1.59203,0 3.10401,-0.36466 4.53595,-1.09396c0.02669,-0.02669 0.12896,0.13341 0.30684,0.48028c0.55143,0.97834 0.82715,1.80549 0.82715,2.48143c0,0.66705 -0.21791,1.10286 -0.65371,1.30742zM248.04779,252.17099c0,-0.95166 -0.46693,-1.42749 -1.40081,-1.42749c-0.4358,0 -0.80936,0.12896 -1.12065,0.38689c-0.30239,0.25793 -0.45359,0.64036 -0.45359,1.14732v1.05394h1.84106c0.75599,0 1.13399,-0.38689 1.13399,-1.16067zM262.2848,262.96389c-2.20572,0 -3.91337,-0.71152 -5.12296,-2.13456c-1.20069,-1.42304 -1.80104,-3.52648 -1.80104,-6.31031c0,-2.79272 0.78712,-4.98065 2.36136,-6.56379c1.58313,-1.58313 3.69102,-2.3747 6.32365,-2.3747c2.63263,0 4.80277,0.58256 6.51042,1.74767v16.99647c0,1.68986 -0.68484,2.98395 -2.05452,3.88224c-1.36078,0.89829 -3.1129,1.34745 -5.25636,1.34745c-2.14346,0 -4.05567,-0.27127 -5.73665,-0.8138c-0.23124,-0.55143 -0.34687,-1.0406 -0.34687,-1.46751c0,-1.45862 0.24014,-2.53035 0.72042,-3.21519c1.52977,0.65816 3.15737,0.98724 4.88281,0.98724c1.25406,0 1.88109,-0.4447 1.88109,-1.3341v-1.01392c-0.97834,0.17788 -1.76546,0.26682 -2.36136,0.26682zM263.85904,251.14373c-1.52977,0 -2.29466,1.15178 -2.29466,3.45533c0,1.43194 0.29795,2.36581 0.89385,2.80161c0.39134,0.29351 0.77823,0.44026 1.16067,0.44026c0.39134,0 0.73375,-0.03557 1.02726,-0.10672v-6.48375c-0.27572,-0.07115 -0.53809,-0.10673 -0.78712,-0.10673zM275.77203,250.57007c-0.63148,-1.13844 -0.94721,-2.06786 -0.94721,-2.78828c0,-0.72042 0.19123,-1.1829 0.57366,-1.38746c1.29853,-0.56921 3.08178,-0.85382 5.34975,-0.85382c2.26797,0 3.86889,0.52919 4.80277,1.58758c0.93387,1.05839 1.40081,2.62373 1.40081,4.69604v5.40312h1.16067c0.38244,0 0.6804,0.2268 0.89385,0.68039c0.22235,0.45359 0.33352,1.08062 0.33352,1.88108c0,0.80046 -0.20012,1.58758 -0.60035,2.36136c-0.40023,0.77378 -0.94277,1.16067 -1.6276,1.16067c-1.22738,0 -2.21462,-0.33353 -2.96171,-1.00058c-0.34687,-0.26682 -0.60924,-0.5959 -0.78712,-0.98724c-1.04949,1.32521 -2.6771,1.98781 -4.88282,1.98781c-1.66318,0 -3.06398,-0.59145 -4.20242,-1.77436c-1.13844,-1.1918 -1.70765,-2.59262 -1.70765,-4.20243c0,-3.7177 2.21905,-5.57655 6.65717,-5.57655h1.88108v-0.33352c0,-0.5959 -0.09783,-0.97835 -0.2935,-1.14733c-0.19567,-0.16898 -0.64482,-0.25348 -1.34745,-0.25348c-0.86272,0 -2.09454,0.18232 -3.69547,0.54698zM278.50695,256.85369c0,0.49807 0.13786,0.88051 0.41357,1.14733c0.27572,0.25793 0.62258,0.38689 1.0406,0.38689c0.41802,0 0.80046,-0.16899 1.14733,-0.50696v-2.64152h-0.96056c-1.09396,0 -1.64094,0.53809 -1.64094,1.61426zM292.00163,256.81367c1.84106,1.12065 3.29968,1.68097 4.37586,1.68097c0.67594,0 1.01392,-0.24014 1.01392,-0.72042c0,-0.34687 -0.59145,-0.79157 -1.77436,-1.3341c-2.84609,-1.16511 -4.26913,-3.06399 -4.26913,-5.69662c0,-1.68986 0.61369,-2.9795 1.84106,-3.8689c1.23627,-0.8894 2.71267,-1.3341 4.42922,-1.3341c1.71655,0 3.17072,0.18232 4.36252,0.54698c1.20069,0.36466 1.80104,0.84493 1.80104,1.44083c0,0.49807 -0.24459,1.16067 -0.73376,1.98781c-0.48917,0.81825 -0.82269,1.2585 -1.00057,1.32076c-0.97834,-0.54254 -2.03673,-0.8138 -3.17517,-0.8138c-0.62258,0 -0.93387,0.21345 -0.93387,0.64037c0,0.27572 0.12007,0.5114 0.36021,0.70707c0.24014,0.19567 0.6804,0.4358 1.32076,0.72042c0.64037,0.28461 1.16956,0.54254 1.58758,0.77378c0.41802,0.22235 0.8894,0.53809 1.41415,0.94721c1.09396,0.86272 1.64095,1.98781 1.64095,3.37528c0,1.82327 -0.6048,3.29968 -1.81438,4.42922c-1.20069,1.12954 -3.01952,1.69431 -5.45648,1.69431c-1.61871,0 -3.09067,-0.27127 -4.41588,-0.8138c-1.31631,-0.55143 -1.97448,-1.30742 -1.97448,-2.26798c0,-0.63148 0.15121,-1.29852 0.4536,-2.00115c0.31129,-0.71152 0.62703,-1.1829 0.94721,-1.41415zM319.5642,262.04335c-1.43194,0.84493 -3.27745,1.2674 -5.53653,1.2674c-2.25018,0 -4.14906,-0.76933 -5.69662,-2.308c-1.54756,-1.53867 -2.32134,-3.66878 -2.32134,-6.39035c0,-2.72157 0.74265,-4.91395 2.22795,-6.57713c1.49419,-1.66318 3.37973,-2.49477 5.6566,-2.49477c2.27687,0 4.03344,0.58256 5.26971,1.74767c1.24516,1.16511 1.86774,2.57482 1.86774,4.22911c0,3.69101 -2.11678,5.53653 -6.35033,5.53653h-2.36136c0,0.68484 0.18677,1.16067 0.56032,1.42749c0.38244,0.25793 0.93832,0.38689 1.66763,0.38689c1.59203,0 3.10401,-0.36466 4.53595,-1.09396c0.02669,-0.02669 0.12896,0.13341 0.30684,0.48028c0.55143,0.97834 0.82714,1.80549 0.82714,2.48143c0,0.66705 -0.2179,1.10286 -0.65371,1.30742zM315.29507,252.17099c0,-0.95166 -0.46693,-1.42749 -1.40081,-1.42749c-0.4358,0 -0.80936,0.12896 -1.12065,0.38689c-0.30239,0.25793 -0.45359,0.64036 -0.45359,1.14732v1.05394h1.84106c0.75599,0 1.13399,-0.38689 1.13399,-1.16067zM330.73275,262.92386c0,0.16009 -1.03615,0.24014 -3.10846,0.24014c-2.07231,-0.04447 -3.10846,-0.13341 -3.10846,-0.26682v-11.33987h-0.92053c-0.36466,0 -0.65816,-0.22235 -0.8805,-0.66706c-0.21345,-0.4447 -0.32019,-0.99613 -0.32019,-1.65429c0,-2.46364 0.72931,-3.69546 2.18793,-3.69546c1.02281,0 1.87664,0.31573 2.56147,0.94721c0.68484,0.62258 1.02726,1.3341 1.02726,2.13456c0.48028,-0.93387 1.12065,-1.68097 1.92111,-2.24129c0.80935,-0.56032 1.6365,-0.84049 2.48143,-0.84049c1.32521,0 2.12123,0.34242 2.38805,1.02725c0.07115,0.18677 0.10673,0.45804 0.10673,0.8138c0,0.34687 -0.11118,0.97835 -0.33352,1.89443c-0.21345,0.90719 -0.43581,1.56535 -0.66705,1.97447c-0.22235,0.40912 -0.35576,0.61369 -0.40023,0.61369c-0.04447,0 -0.25793,-0.08449 -0.64037,-0.25348c-0.37355,-0.16898 -0.70707,-0.25348 -1.00057,-0.25348c-0.86272,0 -1.29408,0.68039 -1.29408,2.04118zM335.43892,245.99409c-0.06226,-0.18677 1.00503,-0.28016 3.20185,-0.28016c2.19682,0 3.29523,0.05781 3.29523,0.17343l2.45475,11.60669l1.84106,-11.43326c0.07115,-0.20456 1.20069,-0.30684 3.38862,-0.30684c2.20572,0 3.273,0.08894 3.20185,0.26682l-4.81611,16.70297c-0.1512,0.23124 -1.50309,0.34687 -4.05567,0.34687c-2.55258,0 -3.91781,-0.17343 -4.0957,-0.5203zM367.48084,262.04335c-1.43194,0.84493 -3.27744,1.2674 -5.53652,1.2674c-2.25018,0 -4.14906,-0.76933 -5.69662,-2.308c-1.54756,-1.53867 -2.32134,-3.66878 -2.32134,-6.39035c0,-2.72157 0.74265,-4.91395 2.22795,-6.57713c1.49419,-1.66318 3.37973,-2.49477 5.6566,-2.49477c2.27687,0 4.03344,0.58256 5.26971,1.74767c1.24516,1.16511 1.86774,2.57482 1.86774,4.22911c0,3.69101 -2.11678,5.53653 -6.35033,5.53653h-2.36136c0,0.68484 0.18677,1.16067 0.56032,1.42749c0.38244,0.25793 0.93833,0.38689 1.66763,0.38689c1.59203,0 3.10401,-0.36466 4.53595,-1.09396c0.02669,-0.02669 0.12896,0.13341 0.30684,0.48028c0.55143,0.97834 0.82715,1.80549 0.82715,2.48143c0,0.66705 -0.21791,1.10286 -0.65371,1.30742zM363.21171,252.17099c0,-0.95166 -0.46693,-1.42749 -1.40081,-1.42749c-0.4358,0 -0.80935,0.12896 -1.12064,0.38689c-0.30239,0.25793 -0.4536,0.64036 -0.4536,1.14732v1.05394h1.84106c0.75599,0 1.13399,-0.38689 1.13399,-1.16067zM378.64942,262.92386c0,0.16009 -1.03615,0.24014 -3.10846,0.24014c-2.07231,-0.04447 -3.10846,-0.13341 -3.10846,-0.26682v-11.33987h-0.92053c-0.36466,0 -0.65817,-0.22235 -0.88051,-0.66706c-0.21345,-0.4447 -0.32018,-0.99613 -0.32018,-1.65429c0,-2.46364 0.72931,-3.69546 2.18793,-3.69546c1.02281,0 1.87664,0.31573 2.56148,0.94721c0.68484,0.62258 1.02726,1.3341 1.02726,2.13456c0.48028,-0.93387 1.12065,-1.68097 1.92111,-2.24129c0.80935,-0.56032 1.6365,-0.84049 2.48143,-0.84049c1.32521,0 2.12122,0.34242 2.38804,1.02725c0.07115,0.18677 0.10673,0.45804 0.10673,0.8138c0,0.34687 -0.11118,0.97835 -0.33352,1.89443c-0.21345,0.90719 -0.43581,1.56535 -0.66705,1.97447c-0.22235,0.40912 -0.35576,0.61369 -0.40023,0.61369c-0.04447,0 -0.25793,-0.08449 -0.64037,-0.25348c-0.37355,-0.16898 -0.70707,-0.25348 -1.00057,-0.25348c-0.86272,0 -1.29408,0.68039 -1.29408,2.04118z" fill="#ffdc7b" stroke="none" stroke-width="1" stroke-linecap="square"/></g></g></svg>